<?xml version="1.0" encoding="UTF-8"?>
<svg width="166px" height="39px" viewBox="0 0 166 39" version="1.1" xmlns="http://www.w3.org/2000/svg" xmlns:xlink="http://www.w3.org/1999/xlink">
    <title>logo</title>
    <defs>
        <path d="M59.5266761,30.32412 C60.3935916,30.32412 61.1792339,30.1856937 61.8836027,29.9088413 C62.5879716,29.6319888 63.1467258,29.230215 63.5598652,28.70352 C63.9730047,28.176825 64.1795744,27.555595 64.1795744,26.83983 C64.1795744,25.934995 63.9018905,25.2226063 63.3465227,24.7026638 C62.791155,24.1827213 61.9445577,23.7674425 60.8067311,23.4568275 C60.17009,23.2677575 59.6926091,23.1056975 59.3742886,22.9706475 C59.055968,22.8355975 58.8392391,22.693795 58.7241019,22.54524 C58.6089647,22.396685 58.5513961,22.2143675 58.5513961,21.9982875 C58.5513961,21.7011775 58.6800789,21.46484 58.9374444,21.289275 C59.19481,21.11371 59.56054,21.0259275 60.0346344,21.0259275 C60.9150955,21.0259275 61.8091022,21.3095325 62.7166544,21.8767425 L62.7166544,21.8767425 L63.8138444,20.235885 C62.7302,19.371565 61.4298266,18.939405 59.9127244,18.939405 C59.0593544,18.939405 58.3109625,19.0778312 57.6675486,19.3546837 C57.0241347,19.6315362 56.5263355,20.0130525 56.1741511,20.4992325 C55.8219666,20.9854125 55.6458744,21.532365 55.6458744,22.14009 C55.6458744,22.95039 55.9066264,23.6290163 56.4281302,24.1759688 C56.9496341,24.7229213 57.7522083,25.1449525 58.8358527,25.4420625 C59.5266761,25.6311325 60.0346344,25.7965687 60.3597277,25.9383713 C60.6848211,26.0801738 60.9083227,26.232105 61.0302327,26.394165 C61.1521427,26.556225 61.2130977,26.7790575 61.2130977,27.0626625 C61.2130977,27.4272975 61.0539375,27.7142788 60.7356169,27.9236063 C60.4172964,28.1329338 59.987225,28.2375975 59.4454027,28.2375975 C58.4294861,28.2375975 57.4677516,27.8864675 56.5601994,27.1842075 L56.5601994,27.1842075 L55.1379161,28.7642925 C55.6661927,29.2504725 56.3028339,29.6319888 57.0478394,29.9088413 C57.792845,30.1856937 58.6191239,30.32412 59.5266761,30.32412 Z M70.5798494,30.32412 C71.6364027,30.32412 72.5541141,30.0877825 73.3329836,29.6151075 C74.111853,29.1424325 74.7078575,28.4773112 75.1209969,27.6197437 C75.5341364,26.7621763 75.7407061,25.7661825 75.7407061,24.6317625 C75.7407061,22.8491025 75.28693,21.4547112 74.3793777,20.4485887 C73.4718255,19.4424662 72.2120889,18.939405 70.6001677,18.939405 C69.5300689,18.939405 68.6055847,19.1757425 67.8267152,19.6484175 C67.0478458,20.1210925 66.4518414,20.7862138 66.0387019,21.6437812 C65.6255625,22.5013487 65.4189927,23.4973425 65.4189927,24.6317625 C65.4189927,26.4144225 65.8761552,27.8088137 66.7904802,28.8149363 C67.7048052,29.8210587 68.9679283,30.32412 70.5798494,30.32412 Z M70.5798494,28.176825 C69.861935,28.176825 69.3234991,27.8898438 68.9645419,27.3158813 C68.6055847,26.7419188 68.4261061,25.8472125 68.4261061,24.6317625 C68.4261061,23.4163125 68.6055847,22.5216063 68.9645419,21.9476438 C69.3234991,21.3736813 69.8687077,21.0867 70.6001677,21.0867 C71.3180822,21.0867 71.8531316,21.3736813 72.2053161,21.9476438 C72.5575005,22.5216063 72.7335927,23.4163125 72.7335927,24.6317625 C72.7335927,25.8472125 72.5541141,26.7419188 72.1951569,27.3158813 C71.8361997,27.8898438 71.2977639,28.176825 70.5798494,28.176825 Z M81.1860194,30 L81.1860194,21.289275 L83.4210361,21.289275 L83.7461294,19.263525 L81.1860194,19.263525 L81.1860194,18.2709075 C81.1860194,17.7577175 81.2909975,17.38633 81.5009536,17.156745 C81.7109097,16.92716 82.0597077,16.8123675 82.5473477,16.8123675 C83.1298066,16.8123675 83.7122655,16.9474175 84.2947244,17.2175175 L84.2947244,17.2175175 L85.0871394,15.3133125 C84.1931327,14.8811525 83.2449439,14.6650725 82.2425727,14.6650725 C80.9828361,14.6650725 80.0109425,14.9925688 79.3268919,15.6475613 C78.6428414,16.3025538 78.3008161,17.1499925 78.3008161,18.1898775 L78.3008161,18.1898775 L78.3008161,19.263525 L76.5940761,19.263525 L76.5940761,21.289275 L78.3008161,21.289275 L78.3008161,30 L81.1860194,30 Z M88.7038027,30.32412 C89.1914427,30.32412 89.6824691,30.2532188 90.1768819,30.1114163 C90.6712947,29.9696138 91.1149116,29.7636625 91.5077327,29.4935625 L91.5077327,29.4935625 L90.5121344,27.6703875 C90.0651311,27.9134775 89.6587644,28.0350225 89.2930344,28.0350225 C88.9273044,28.0350225 88.6563933,27.92023 88.4803011,27.690645 C88.3042089,27.46106 88.2161627,27.0896725 88.2161627,26.5764825 L88.2161627,26.5764825 L88.2161627,21.289275 L90.4105427,21.289275 L90.6949994,19.263525 L88.2161627,19.263525 L88.2161627,16.5692775 L85.3309594,16.913655 L85.3309594,19.263525 L83.7258111,19.263525 L83.7258111,21.289275 L85.3309594,21.289275 L85.3309594,26.637255 C85.3309594,27.8392 85.6154161,28.7507875 86.1843294,29.3720175 C86.7532427,29.9932475 87.5930672,30.310615 88.7038027,30.32412 Z M95.6729911,30 L95.6729911,22.585755 C95.9574477,22.08607 96.2419044,21.7113062 96.5263611,21.4614638 C96.8108177,21.2116213 97.1426839,21.0867 97.5219594,21.0867 C98.2263283,21.0867 98.5785127,21.613395 98.5785127,22.666785 L98.5785127,22.666785 L98.5785127,30 L101.463716,30 L101.463716,22.585755 C101.761718,22.072565 102.052948,21.694425 102.337404,21.451335 C102.621861,21.208245 102.953727,21.0867 103.333003,21.0867 C104.037372,21.0867 104.389556,21.613395 104.389556,22.666785 L104.389556,22.666785 L104.389556,30 L107.274759,30 L107.274759,22.180605 C107.274759,21.181235 107.014007,20.3911925 106.492504,19.8104775 C105.971,19.2297625 105.283563,18.939405 104.430193,18.939405 C103.766461,18.939405 103.173842,19.0845838 102.652339,19.3749413 C102.130835,19.6652988 101.646581,20.100835 101.199578,20.68155 C100.996394,20.127845 100.671301,19.6990612 100.224298,19.3951987 C99.7772944,19.0913362 99.2490177,18.939405 98.6394677,18.939405 C97.9757355,18.939405 97.3898902,19.0812075 96.8819319,19.3648125 C96.3739736,19.6484175 95.9168111,20.06032 95.5104444,20.60052 L95.5104444,20.60052 L95.2869427,19.263525 L92.7877877,19.263525 L92.7877877,30 L95.6729911,30 Z M114.528404,30.32412 C115.584958,30.32412 116.502669,30.0877825 117.281539,29.6151075 C118.060408,29.1424325 118.656412,28.4773112 119.069552,27.6197437 C119.482691,26.7621763 119.689261,25.7661825 119.689261,24.6317625 C119.689261,22.8491025 119.235485,21.4547112 118.327933,20.4485887 C117.420381,19.4424662 116.160644,18.939405 114.548723,18.939405 C113.478624,18.939405 112.55414,19.1757425 111.77527,19.6484175 C110.996401,20.1210925 110.400396,20.7862138 109.987257,21.6437812 C109.574117,22.5013487 109.367548,23.4973425 109.367548,24.6317625 C109.367548,26.4144225 109.82471,27.8088137 110.739035,28.8149363 C111.65336,29.8210587 112.916483,30.32412 114.528404,30.32412 Z M114.528404,28.176825 C113.81049,28.176825 113.272054,27.8898438 112.913097,27.3158813 C112.55414,26.7419188 112.374661,25.8472125 112.374661,24.6317625 C112.374661,23.4163125 112.55414,22.5216063 112.913097,21.9476438 C113.272054,21.3736813 113.817263,21.0867 114.548723,21.0867 C115.266637,21.0867 115.801687,21.3736813 116.153871,21.9476438 C116.506056,22.5216063 116.682148,23.4163125 116.682148,24.6317625 C116.682148,25.8472125 116.502669,26.7419188 116.143712,27.3158813 C115.784755,27.8898438 115.246319,28.176825 114.528404,28.176825 Z M126.394311,30.32412 C127.450864,30.32412 128.368576,30.0877825 129.147445,29.6151075 C129.926315,29.1424325 130.522319,28.4773112 130.935459,27.6197437 C131.348598,26.7621763 131.555168,25.7661825 131.555168,24.6317625 C131.555168,22.8491025 131.101392,21.4547112 130.193839,20.4485887 C129.286287,19.4424662 128.026551,18.939405 126.414629,18.939405 C125.344531,18.939405 124.420046,19.1757425 123.641177,19.6484175 C122.862307,20.1210925 122.266303,20.7862138 121.853164,21.6437812 C121.440024,22.5013487 121.233454,23.4973425 121.233454,24.6317625 C121.233454,26.4144225 121.690617,27.8088137 122.604942,28.8149363 C123.519267,29.8210587 124.78239,30.32412 126.394311,30.32412 Z M126.394311,28.176825 C125.676397,28.176825 125.137961,27.8898438 124.779004,27.3158813 C124.420046,26.7419188 124.240568,25.8472125 124.240568,24.6317625 C124.240568,23.4163125 124.420046,22.5216063 124.779004,21.9476438 C125.137961,21.3736813 125.683169,21.0867 126.414629,21.0867 C127.132544,21.0867 127.667593,21.3736813 128.019778,21.9476438 C128.371962,22.5216063 128.548054,23.4163125 128.548054,24.6317625 C128.548054,25.8472125 128.368576,26.7419188 128.009619,27.3158813 C127.650661,27.8898438 127.112226,28.176825 126.394311,28.176825 Z M136.634751,30 L136.634751,22.585755 C136.946299,22.08607 137.268006,21.7113062 137.599872,21.4614638 C137.931738,21.2116213 138.300854,21.0867 138.707221,21.0867 C139.100042,21.0867 139.394658,21.2048688 139.591069,21.4412063 C139.787479,21.6775438 139.885684,22.08607 139.885684,22.666785 L139.885684,22.666785 L139.885684,30 L142.770888,30 L142.770888,22.180605 C142.770888,21.16773 142.506749,20.3743112 141.978473,19.8003487 C141.450196,19.2263862 140.711963,18.939405 139.763774,18.939405 C139.086497,18.939405 138.480333,19.0812075 137.945284,19.3648125 C137.410234,19.6484175 136.919208,20.0670725 136.472204,20.6207775 L136.472204,20.6207775 L136.248703,19.263525 L133.749548,19.263525 L133.749548,30 L136.634751,30 Z M146.509461,30.32412 C146.997101,30.32412 147.410241,30.1519313 147.748879,29.8075538 C148.087518,29.4631763 148.256838,29.05465 148.256838,28.581975 C148.256838,28.1093 148.087518,27.70415 147.748879,27.366525 C147.410241,27.0289 146.997101,26.8600875 146.509461,26.8600875 C146.035367,26.8600875 145.629,27.0289 145.290361,27.366525 C144.951722,27.70415 144.782403,28.1093 144.782403,28.581975 C144.782403,29.05465 144.951722,29.4631763 145.290361,29.8075538 C145.629,30.1519313 146.035367,30.32412 146.509461,30.32412 Z M151.812546,17.0959725 C152.327277,17.0959725 152.750576,16.9372888 153.082442,16.6199213 C153.414308,16.3025538 153.580241,15.90078 153.580241,15.4146 C153.580241,14.92842 153.414308,14.5266463 153.082442,14.2092787 C152.750576,13.8919112 152.327277,13.7332275 151.812546,13.7332275 C151.297815,13.7332275 150.877903,13.8919112 150.552809,14.2092787 C150.227716,14.5266463 150.065169,14.92842 150.065169,15.4146 C150.065169,15.90078 150.227716,16.3025538 150.552809,16.6199213 C150.877903,16.9372888 151.297815,17.0959725 151.812546,17.0959725 Z M153.275466,30 L153.275466,19.263525 L150.390263,19.263525 L150.390263,30 L153.275466,30 Z M160.630703,30.32412 C161.687256,30.32412 162.604967,30.0877825 163.383837,29.6151075 C164.162706,29.1424325 164.758711,28.4773112 165.17185,27.6197437 C165.58499,26.7621763 165.791559,25.7661825 165.791559,24.6317625 C165.791559,22.8491025 165.337783,21.4547112 164.430231,20.4485887 C163.522679,19.4424662 162.262942,18.939405 160.651021,18.939405 C159.580922,18.939405 158.656438,19.1757425 157.877569,19.6484175 C157.098699,20.1210925 156.502695,20.7862138 156.089555,21.6437812 C155.676416,22.5013487 155.469846,23.4973425 155.469846,24.6317625 C155.469846,26.4144225 155.927009,27.8088137 156.841334,28.8149363 C157.755659,29.8210587 159.018782,30.32412 160.630703,30.32412 Z M160.630703,28.176825 C159.912788,28.176825 159.374352,27.8898438 159.015395,27.3158813 C158.656438,26.7419188 158.476959,25.8472125 158.476959,24.6317625 C158.476959,23.4163125 158.656438,22.5216063 159.015395,21.9476438 C159.374352,21.3736813 159.919561,21.0867 160.651021,21.0867 C161.368936,21.0867 161.903985,21.3736813 162.256169,21.9476438 C162.608354,22.5216063 162.784446,23.4163125 162.784446,24.6317625 C162.784446,25.8472125 162.604967,26.7419188 162.24601,27.3158813 C161.887053,27.8898438 161.348617,28.176825 160.630703,28.176825 Z" id="path-1"></path>
    </defs>
    <g id="Welcome" stroke="none" stroke-width="1" fill="none" fill-rule="evenodd">
        <g id="Desktop" transform="translate(-429.000000, -60.000000)">
            <g id="logo" transform="translate(429.000000, 60.000000)">
                <g id="Group-Copy">
                    <path d="M22.5009843,11.25 C24.8879545,11.25 27.1018163,11.9889461 28.9249886,13.2499088 L28.9249886,13.2499088 L23.6293627,19.125 L24.1134043,19.7034044 C23.6457805,19.566442 23.1231211,19.5 22.5675676,19.5 C20.4902803,19.5 19.5585586,20.0539322 19.5585586,22.125 C19.5585586,24.1960678 20.4902803,25.875 22.5675676,25.875 C23.0102681,25.875 23.4320812,25.8157781 23.821803,25.7025302 L31.1518852,33.375 L26.2622456,36 C16.2473279,26.448591 11.2545502,21.5380603 11.2839125,21.268408 C11.8993086,15.6346099 16.6865686,11.25 22.5009843,11.25 Z" id="Combined-Shape" fill="#42EEE9" opacity="0.5"></path>
                    <path d="M22.5675676,7.5 C25.7811153,7.5 28.8424966,8.50815376 31.3845197,10.3444223 L32.5085873,9.22341321 C32.7800724,8.95260932 33.2049022,8.92799078 33.5042682,9.1495576 L33.5900353,9.22341321 L35.8841329,11.5117545 C36.155618,11.7825584 36.1802985,12.2063222 35.9581743,12.504937 L35.8841329,12.5904889 L34.760779,13.7109626 C36.6011037,16.2438932 37.6126126,19.2957681 37.6126126,22.5 C37.6126126,28.9057363 33.5852116,34.3736391 27.9172113,36.5240525 L29.1175083,37.7196699 C29.411281,38.0125631 29.411281,38.4874369 29.1175083,38.7803301 C28.8237355,39.0732233 28.3474357,39.0732233 28.0536629,38.7803301 L26.3021681,37.0342498 C25.1080258,37.3383422 23.856732,37.5 22.5675676,37.5 C22.4079598,37.5 22.2535817,37.4494287 22.1259846,37.3571862 L22.0356449,37.2803301 L7.74285211,23.0303301 C7.60177744,22.8896778 7.52252252,22.6989124 7.52252252,22.5 C7.52252252,14.2157288 14.2584186,7.5 22.5675676,7.5 Z M12.4926871,13.4801925 C10.46709,15.7277156 9.18714373,18.6567305 9.04104396,21.8802037 L9.03046443,22.1927669 L22.8757233,35.9965729 C23.6130396,35.9801577 24.3358151,35.9049826 25.0395244,35.7755592 L10.9076577,21.6856602 C10.6138849,21.392767 10.6138849,20.9178932 10.9076577,20.625 C11.2014304,20.3321068 11.6777302,20.3321068 11.971503,20.625 L26.7375834,35.347695 C28.0352682,34.9293258 29.247242,34.3209543 30.3405097,33.5554769 L23.0657871,26.2173917 C22.9027768,26.2389 22.7364724,26.25 22.5675676,26.25 C20.4902803,26.25 18.8063063,24.5710678 18.8063063,22.5 C18.8063063,21.7263129 19.0413115,21.0073498 19.4440359,20.4101954 L12.4926871,13.4801925 Z M2.24181614,28.0283906 C2.68079959,29.6366241 3.31051404,31.1818556 4.11557959,32.6355233 C4.31639881,32.9981328 4.18435914,33.4543946 3.82066073,33.6546125 C3.45696232,33.8548305 2.99933036,33.7231862 2.79851115,33.3605767 C1.93569086,31.802624 1.26068672,30.146258 0.79010945,28.4222792 C0.681013471,28.0226017 0.91754932,27.6104241 1.31842705,27.5016548 C1.71930479,27.3928854 2.13272017,27.6287131 2.24181614,28.0283906 Z M25.7985083,24.4210016 C25.4956073,24.9263172 25.0768318,25.3546228 24.5787658,25.6694435 L31.4975963,32.6482098 C31.9356877,32.2647057 32.348738,31.853452 32.7339849,31.417203 L25.7985083,24.4210016 Z M44.3828829,25.5 L45.0161936,27.3942438 C45.091069,27.6181975 45.2673334,27.7939342 45.4919597,27.8685854 L47.3918919,28.5 L45.4919597,29.1314146 C45.2673334,29.2060658 45.091069,29.3818025 45.0161936,29.6057562 L44.3828829,31.5 L43.7495722,29.6057562 C43.6746967,29.3818025 43.4984323,29.2060658 43.2738061,29.1314146 L41.3738739,28.5 L43.2738061,27.8685854 C43.4984323,27.7939342 43.6746967,27.6181975 43.7495722,27.3942438 L44.3828829,25.5 Z M33.6823439,14.787236 L32.6145079,15.8537545 C33.9012491,17.7937821 34.6036036,20.1000046 34.6036036,22.5 C34.6036036,22.9142136 34.2668088,23.25 33.8513514,23.25 L32.3468468,23.25 L32.3465225,28.953 L33.6461068,30.2640416 C35.197238,28.0680019 36.1081081,25.390055 36.1081081,22.5 C36.1081081,19.697403 35.2497409,17.0272218 33.6823439,14.787236 Z M31.525706,16.9399196 L26.3116502,22.1392608 C26.3230153,22.2579794 26.3288288,22.3783128 26.3288288,22.5 C26.3288288,22.6230506 26.3228843,22.744717 26.3112661,22.8647292 L30.8415225,27.435 L30.8423423,22.5 C30.8423423,22.0857864 31.1791371,21.75 31.5945946,21.75 L33.0729636,21.75 C32.9522813,20.022836 32.4165363,18.3742118 31.525706,16.9399196 Z M22.5675676,20.25 C21.3211952,20.25 20.3108108,21.2573593 20.3108108,22.5 C20.3108108,23.7426407 21.3211952,24.75 22.5675676,24.75 C23.8139399,24.75 24.8243243,23.7426407 24.8243243,22.5 C24.8243243,21.2573593 23.8139399,20.25 22.5675676,20.25 Z M4.02533336,11.0110849 C4.38535318,11.2178059 4.50912317,11.6763663 4.30178137,12.0353082 C2.47815267,15.1923021 1.5045045,18.7745137 1.5045045,22.5 C1.5045045,22.9142136 1.1677097,23.25 0.752252252,23.25 C0.336794805,23.25 0,22.9142136 0,22.5 C0,18.5099908 1.04373877,14.6699043 2.99803428,11.2867052 C3.20537608,10.9277633 3.66531354,10.8043638 4.02533336,11.0110849 Z M22.5675676,0 C35.031291,0 45.1351351,10.0735931 45.1351351,22.5 C45.1351351,22.9142136 44.7983403,23.25 44.3828829,23.25 C43.9674254,23.25 43.6306306,22.9142136 43.6306306,22.5 C43.6306306,10.9020203 34.2003761,1.5 22.5675676,1.5 C16.9091345,1.5 11.6073059,3.73379401 7.68298772,7.64153612 C7.38903369,7.93424851 6.912734,7.93395543 6.61914259,7.6408815 C6.32555118,7.34780757 6.32584514,6.87293392 6.61979917,6.58022153 C10.8234179,2.3943586 16.5063407,0 22.5675676,0 Z M22.5675676,21.75 C22.983025,21.75 23.3198198,22.0857864 23.3198198,22.5 C23.3198198,22.9142136 22.983025,23.25 22.5675676,23.25 C22.1521101,23.25 21.8153153,22.9142136 21.8153153,22.5 C21.8153153,22.0857864 22.1521101,21.75 22.5675676,21.75 Z M33.0493113,10.8415148 L24.5539255,19.3149902 C25.0451457,19.6201575 25.460629,20.0351416 25.7658268,20.5254975 L34.2619609,12.0511217 L33.0493113,10.8415148 Z M22.5675676,9 C19.0903308,9 15.919228,10.3067908 13.5213703,12.4546598 L20.4724884,19.3851493 C21.0712384,18.9840406 21.7919894,18.75 22.5675676,18.75 C22.6930824,18.75 22.8171613,18.7561296 22.9395195,18.7681049 L28.1529121,13.5670627 C26.6928167,12.656275 25.0240438,12.1121391 23.2709779,11.9984175 C22.856397,11.9715236 22.5421802,11.6146438 22.5691548,11.2013043 C22.5961295,10.7879647 22.954081,10.4746886 23.3686618,10.5015825 C25.4896069,10.6391685 27.5041267,11.3285105 29.2407266,12.4820413 L30.3057921,11.4201361 C28.0576147,9.85578862 25.3787962,9 22.5675676,9 Z" id="Combined-Shape" fill="#3A20A2" fill-rule="nonzero"></path>
                </g>
                <g id="softmoon.io" fill-rule="nonzero">
                    <use fill="#373737" xlink:href="#path-1"></use>
                    <use fill="#3A20A2" xlink:href="#path-1"></use>
                </g>
            </g>
        </g>
    </g>
</svg>